<svg width="241" height="193" viewBox="0 0 241 193" fill="none" xmlns="http://www.w3.org/2000/svg">
<path d="M124.976 192.412C177.887 192.412 220.781 149.458 220.781 96.4707C220.781 43.4839 177.887 0.529541 124.976 0.529541C72.0649 0.529541 29.1719 43.4839 29.1719 96.4707C29.1719 149.458 72.0649 192.412 124.976 192.412Z" fill="#F5F7FB"/>
<path d="M228.195 97.7536L228.836 77.7773C225.084 73.1039 208.522 74.845 195.62 76.4944C184.456 77.9605 161.763 81.4426 158.103 87.3989C154.26 93.7217 161.946 137.431 169.175 142.105C174.665 145.678 198.365 140.364 208.613 133.949C225.907 120.845 228.195 97.7536 228.195 97.7536Z" fill="#274AA8"/>
<path d="M171.371 138.806C175.214 141.463 194.338 136.515 205.868 130.1C223.345 114.614 223.894 83.7335 223.894 83.7335C227.462 80.2514 224.992 78.2354 222.43 77.6856C220.142 77.2274 208.613 77.8689 196.168 79.6099C183.358 81.4426 164.233 85.3829 161.854 89.5981C158.835 94.5463 165.331 134.591 171.371 138.806Z" fill="#26418E"/>
<path d="M44.1784 51.9364C44.4529 51.8447 44.8189 52.028 45.002 52.3945L45.4595 53.4025C45.6425 53.7691 45.4595 54.044 45.185 54.1356L40.9758 55.2352C40.7013 55.3269 40.3353 55.1436 40.1523 54.777L39.6948 53.7691C39.5118 53.4025 39.6948 53.1276 39.9693 53.036L44.1784 51.9364Z" fill="#898989"/>
<path d="M38.1526 56.1966C38.6316 55.7463 38.5713 54.9027 38.0179 54.3123C37.4645 53.722 36.6275 53.6084 36.1485 54.0587C35.6695 54.509 35.7299 55.3526 36.2833 55.9429C36.8367 56.5333 37.6736 56.6469 38.1526 56.1966Z" fill="#898989"/>
<path d="M60.5602 137.615C62.7563 137.065 65.4099 138.439 66.3249 140.822C67.3315 143.204 66.3249 145.587 64.1288 146.228C61.9327 146.778 59.2791 145.403 58.3641 143.021C57.3575 140.638 58.3641 138.164 60.5602 137.615Z" fill="#9E9E9E"/>
<path d="M45.3712 49.7372C48.3908 48.9125 51.9595 50.9284 53.332 54.2273L87.0969 135.415C88.4694 138.714 87.0969 142.013 84.0773 142.838L45.6457 153.192C42.6261 154.017 39.0574 152.001 37.6849 148.702L3.92002 67.5143C2.54746 64.2154 3.92001 60.9166 6.93963 60.0919L45.3712 49.7372ZM80.0511 127.718L50.8614 57.6178C50.3124 56.2432 48.7568 55.3269 47.3843 55.6934L9.68474 65.8648C8.40369 66.2314 7.76316 67.6975 8.31219 69.072L37.5019 139.172C38.0509 140.547 39.6065 141.463 40.979 141.097L78.6786 130.925C80.0511 130.559 80.6916 129.093 80.0511 127.718ZM64.1294 146.228C66.3255 145.678 67.3321 143.204 66.3256 140.822C65.319 138.439 62.7569 136.973 60.5608 137.615C58.3647 138.164 57.3582 140.638 58.3647 143.021C59.3713 145.403 61.9333 146.778 64.1294 146.228ZM39.698 53.8607L40.1555 54.8687C40.3385 55.2353 40.613 55.4185 40.979 55.3269L45.1882 54.2273C45.4627 54.1356 45.6457 53.7691 45.4627 53.4942L45.0052 52.4862C44.8222 52.1197 44.5477 51.9364 44.1816 52.0281L39.9725 53.1277C39.698 53.2193 39.515 53.4942 39.698 53.8607ZM36.5868 53.7691C35.9463 53.9524 35.5803 54.6855 35.9463 55.4185C36.2208 56.1516 37.0443 56.6098 37.6849 56.4265C38.3254 56.2432 38.6914 55.5102 38.3254 54.7771C38.0509 54.044 37.3189 53.5858 36.5868 53.7691Z" fill="#747474"/>
<path d="M47.384 55.6018C48.6651 55.2352 50.2206 56.1516 50.8611 57.5261L80.0508 127.626C80.5999 129.001 80.0508 130.467 78.7698 130.834L40.9788 141.005C39.6977 141.372 38.1422 140.455 37.5016 139.081L8.31195 68.9804C7.76293 67.6059 8.31195 66.1397 9.6845 65.7732L47.384 55.6018Z" fill="white"/>
<path d="M84.0778 142.746L45.6462 153.101C42.6266 153.925 39.058 151.909 37.6854 148.611L3.92056 67.4226C2.91402 65.0401 3.37154 62.566 4.92711 61.0999L1.54146 64.2154C-0.0141038 65.6816 -0.471628 68.0641 0.534913 70.5382L34.2998 151.726C35.6723 155.025 39.241 156.949 42.2606 156.216L80.6921 145.862C81.5157 145.678 82.1562 145.22 82.7052 144.762L86.0908 141.646C85.5418 142.105 84.9013 142.471 84.0778 142.746Z" fill="#333333"/>
<path d="M128.582 103.252H102.138C101.955 103.252 101.863 103.16 101.863 102.977V98.0284C101.863 97.8452 101.955 97.7535 102.138 97.7535H128.582C128.765 97.7535 128.857 97.8452 128.857 98.0284V102.977C128.857 103.16 128.765 103.252 128.582 103.252Z" fill="#5981F9"/>
<path d="M124.098 89.1399V111.957C124.098 112.415 124.372 112.69 124.555 112.507L135.81 100.777C135.902 100.686 135.902 100.503 135.81 100.319L124.555 88.5901C124.372 88.4069 124.098 88.6818 124.098 89.1399Z" fill="#5981F9"/>
<path d="M57.4476 77.3191C59.7351 83.6419 65.2254 88.3152 70.6241 89.2316C69.4345 90.0563 68.245 90.881 67.0555 91.7057C61.6567 90.7893 56.258 86.116 53.8789 79.7932C55.0685 78.9685 56.258 78.1438 57.4476 77.3191Z" fill="#F2C32D"/>
<path d="M70.6233 89.2316C71.8129 89.4148 72.9109 89.4148 74.009 89.2316L70.4403 91.7057C69.3423 91.889 68.1527 91.889 67.0547 91.7057C67.6952 91.2475 68.4273 90.7894 69.0678 90.3312C69.3423 90.1479 69.7083 89.873 69.9828 89.6897C70.0743 89.5981 70.2573 89.5065 70.4403 89.4148C70.4403 89.4148 70.5318 89.3232 70.6233 89.2316Z" fill="#F2C32D"/>
<path d="M66.1389 82.2674C67.969 83.5503 70.0736 84.2834 71.9952 83.9168L68.4265 86.3909C66.505 86.7575 64.4004 86.116 62.5703 84.7415C63.7599 83.9168 64.9494 83.0921 66.1389 82.2674Z" fill="#F1B800"/>
<path d="M74.01 89.2316C75.2911 89.0483 76.3891 88.5901 77.3957 87.8571L73.827 90.3312C72.8205 90.9726 71.7225 91.4308 70.4414 91.7057C71.4479 90.9726 72.8205 89.7814 74.01 89.2316Z" fill="#F2C32D"/>
<path d="M60.378 62.8409C56.5348 65.4983 55.1623 71.1796 57.4499 77.3191C56.2603 78.1438 55.0708 78.9685 53.8812 79.7932C51.5936 73.6537 52.9662 67.8808 56.8093 65.315C57.9074 64.5819 59.28 63.574 60.378 62.8409Z" fill="#F2C32D"/>
<path d="M61.8385 76.586C62.6621 78.9685 64.3091 80.8929 66.1392 82.2674C64.9497 83.0921 63.7601 83.9168 62.5706 84.7415C60.7405 83.4586 59.1849 81.4427 58.2699 79.0602C56.8973 75.3032 57.7209 71.7294 60.1 70.1716L63.6686 67.6975C61.2895 69.3469 60.466 72.829 61.8385 76.586Z" fill="#F1B800"/>
<path d="M71.9944 83.9168C72.8179 83.8252 73.4585 83.4586 74.099 83.0921L70.5303 85.5662C69.8898 85.9328 69.2493 86.2993 68.4258 86.3909C69.5238 85.6579 70.8049 84.375 71.9944 83.9168Z" fill="#F1B800"/>
<path d="M60.1016 70.1716L63.6702 67.6975C64.3107 67.331 64.9513 67.0561 65.7748 66.8728L62.2062 69.3469C61.3826 69.4386 60.6506 69.7135 60.1016 70.1716Z" fill="#F2C32D"/>
<path d="M56.8086 65.315L60.3773 62.8409C61.3838 62.1994 62.4818 61.7413 63.7629 61.4664L60.1942 63.9405C58.9132 64.2154 57.8151 64.6736 56.8086 65.315Z" fill="#F1B800"/>
<path d="M56.4414 64.7652L60.01 62.2911C61.0166 61.6496 62.2061 61.0998 63.4872 60.9166L59.9186 63.3907C58.6375 63.574 57.4479 64.1238 56.4414 64.7652Z" fill="#F2C32D"/>
<path d="M74.1025 83.0921L70.5338 85.5662C72.9129 83.9168 73.7365 80.4347 72.3639 76.6777C70.6253 72.0043 66.0502 68.7055 62.207 69.3469L65.7757 66.8728C69.6188 66.2314 74.194 69.4386 75.9326 74.2036C77.3051 77.9606 76.4816 81.5343 74.1025 83.0921Z" fill="#F2C32D"/>
<path d="M70.5155 85.5135C73.6523 83.383 73.8726 78.2266 71.0077 73.9964C68.1427 69.7662 63.2773 68.064 60.1406 70.1945C57.0038 72.325 56.7834 77.4813 59.6484 81.7116C62.5134 85.9418 67.3787 87.644 70.5155 85.5135Z" fill="#F2C32D"/>
<path d="M77.3941 87.9487L73.8254 90.4228C77.6686 87.7654 79.0411 82.0841 76.7536 75.9446C73.9169 68.2473 66.5051 62.9325 60.1914 64.0322L63.76 61.558C70.0738 60.4584 77.4856 65.7732 80.3222 73.4705C82.6098 79.5184 81.2372 85.2913 77.3941 87.9487Z" fill="#F1B800"/>
<path d="M60.1919 63.9405C66.5056 62.8409 73.9174 68.1557 76.7541 75.8529C79.5907 83.5502 76.7541 90.6061 70.4403 91.7057C64.1266 92.8053 56.7148 87.4905 53.8782 79.7932C51.0415 72.1876 53.8781 65.0401 60.1919 63.9405ZM68.4272 86.3909C72.2704 85.7495 74.0089 81.351 72.2704 76.6777C70.5318 72.0043 65.9566 68.7055 62.1135 69.3469C58.2703 69.9883 56.5317 74.3868 58.2703 79.0601C60.0089 83.7335 64.5841 87.0323 68.4272 86.3909Z" fill="#F1B800"/>
<path d="M77.7595 88.4985L74.1909 90.9727C78.217 88.2236 79.5896 82.2674 77.302 75.853C74.3739 67.8808 66.5961 62.2911 60.0078 63.4823L63.5765 61.0082C70.1647 59.9086 77.851 65.4067 80.8707 73.3789C83.1582 79.7016 81.7857 85.7495 77.7595 88.4985Z" fill="#F2C32D"/>
<path d="M59.9165 63.3907C66.5047 62.2911 74.191 67.7892 77.2106 75.7614C80.1388 83.7336 77.2106 91.1559 70.6224 92.2555C64.0341 93.3552 56.3478 87.8571 53.3282 79.7933C50.4001 71.9127 53.4197 64.4903 59.9165 63.3907ZM70.4394 91.7057C76.7531 90.6061 79.5897 83.5503 76.7531 75.853C73.9165 68.1557 66.5047 62.8409 60.191 63.9405C53.8772 65.0401 51.0406 72.096 53.8772 79.7933C56.7138 87.4906 64.1256 92.8054 70.4394 91.7057Z" fill="#F2C32D"/>
<path d="M93.1367 65.8648C100.274 63.9405 106.222 56.4265 106.588 49.1874C107.686 50.1037 108.875 51.1117 109.973 52.028C109.607 59.2672 103.66 66.6895 96.5224 68.7055C95.5158 67.7892 94.2348 66.6895 93.1367 65.8648Z" fill="#F2C32D"/>
<path d="M100.639 46.6216C101.737 47.538 102.927 48.546 104.025 49.4623C104.757 50.4703 105.123 51.8448 105.031 53.4026C104.848 57.801 101.096 62.3828 96.7958 63.574L93.4102 60.7333C97.8023 59.5421 101.462 54.9604 101.645 50.5619C101.737 49.0041 101.371 47.6296 100.639 46.6216Z" fill="#F1B800"/>
<path d="M106.592 49.1874C106.775 45.7053 105.585 42.9563 103.48 41.2152L106.866 44.0559C108.879 45.7969 110.069 48.546 109.977 52.0281C109.886 51.9364 109.703 51.7532 109.611 51.6615C109.52 51.5699 109.337 51.3866 109.154 51.295C109.062 51.2034 108.879 51.0201 108.696 50.9284C108.605 50.8368 108.422 50.6535 108.239 50.5619C107.781 50.1954 107.232 49.6456 106.592 49.1874Z" fill="#F2C32D"/>
<path d="M100.638 46.6216C100.363 46.2551 100.089 45.8886 99.7227 45.6136L103.108 48.4543C103.474 48.7292 103.749 49.0958 104.023 49.4623C103.383 48.9125 102.742 48.3627 102.01 47.8129C101.919 47.8129 101.919 47.7212 101.827 47.6296C101.736 47.6296 101.736 47.538 101.644 47.4463C101.553 47.4463 101.553 47.3547 101.461 47.2631C101.37 47.1714 101.37 47.1714 101.278 47.0798C101.187 46.9882 101.187 46.9882 101.095 46.8965C101.004 46.8965 101.004 46.8049 100.912 46.7133C100.821 46.7133 100.821 46.6216 100.729 46.53C100.821 46.8049 100.729 46.7133 100.638 46.6216C100.729 46.7133 100.729 46.6216 100.638 46.6216Z" fill="#F1B800"/>
<path d="M87.832 59.817C89.2046 61.0082 91.2176 61.3747 93.4137 60.7333L96.7994 63.574C94.5118 64.2154 92.4987 63.7572 91.2176 62.6576C90.1196 61.8329 88.8386 60.7333 87.832 59.817Z" fill="#F1B800"/>
<path d="M83.9883 64.307C86.1844 66.2313 89.4785 66.8728 93.1387 65.8648L96.5243 68.7055C92.8642 69.7134 89.57 69.072 87.3739 67.1477C86.3674 66.323 84.9948 65.1317 83.9883 64.307Z" fill="#F2C32D"/>
<path d="M99.8217 45.7052L103.207 48.5459C101.835 47.3546 99.8217 46.9881 97.5341 47.6295L94.1484 44.7889C96.436 44.1474 98.4491 44.514 99.8217 45.7052Z" fill="#F2C32D"/>
<path d="M91.1235 62.7493L87.7378 59.9086C86.4568 58.809 85.7248 57.1596 85.8163 54.9604C85.9993 50.5619 89.7509 45.9802 94.0516 44.7889L97.4372 47.6296C93.0451 48.8209 89.3849 53.4026 89.2019 57.801C89.2019 59.9086 89.9339 61.6497 91.1235 62.7493Z" fill="#F2C32D"/>
<path d="M97.7148 42.4981C104.852 40.5738 110.251 44.7889 109.976 52.0281C109.61 59.2672 103.663 66.6896 96.5253 68.7055C89.4795 70.6298 83.9893 66.4146 84.2638 59.1755C84.6298 51.9364 90.669 44.514 97.7148 42.4981ZM96.7998 63.6656C101.192 62.4744 104.852 57.8927 105.035 53.4942C105.218 49.0958 101.924 46.4384 97.5318 47.6296C93.1396 48.8209 89.4795 53.4026 89.2965 57.801C89.022 62.1995 92.4076 64.8569 96.7998 63.6656Z" fill="#F1B800"/>
<path d="M102.265 59.9357C105.564 56.0351 105.956 50.9375 103.141 48.5498C100.326 46.1621 95.3695 47.3885 92.0707 51.2891C88.7719 55.1896 88.3798 60.2872 91.195 62.6749C94.0102 65.0626 98.9665 63.8362 102.265 59.9357Z" fill="#F2C32D"/>
<path d="M103.572 41.2152L106.958 44.0559C104.762 42.1315 101.468 41.4901 97.8075 42.4981L94.4219 39.6574C98.082 38.6494 101.376 39.2909 103.572 41.2152Z" fill="#F1B800"/>
<path d="M103.938 40.757L107.324 43.5977C105.036 41.6734 101.651 40.9403 97.8075 42.0399L94.4219 39.1992C98.265 38.0996 101.651 38.7411 103.938 40.757Z" fill="#F2C32D"/>
<path d="M87.3767 67.1477L83.991 64.307C81.978 62.566 80.7884 59.8169 80.8799 56.3348C81.2459 49.0957 87.1937 41.6733 94.3309 39.749L97.7166 42.5897C90.6708 44.514 84.6316 52.028 84.2655 59.1755C84.174 62.6576 85.3636 65.4066 87.3767 67.1477Z" fill="#F1B800"/>
<path d="M97.8059 41.9483C105.218 39.9324 110.891 44.3308 110.525 51.8448C110.159 59.3588 103.937 67.1478 96.5249 69.1637C89.1131 71.1797 83.4398 66.7812 83.8058 59.2672C84.0803 51.7532 90.3941 44.0559 97.8059 41.9483ZM96.5249 68.7055C103.662 66.7812 109.61 59.2672 109.976 52.0281C110.342 44.789 104.852 40.5738 97.7144 42.4981C90.6686 44.4224 84.6294 51.9365 84.2633 59.0839C83.9888 66.4147 89.4791 70.6299 96.5249 68.7055Z" fill="#F2C32D"/>
<path d="M87.0079 67.6975L83.6223 64.8568C81.5177 63.0242 80.2367 60.1835 80.4197 56.5181C80.7857 49.0041 87.0079 41.2152 94.4197 39.1992L97.8054 42.0399C90.3936 44.0558 84.1713 51.8448 83.8053 59.3588C83.6223 62.9325 84.8118 65.8648 87.0079 67.6975Z" fill="#F2C32D"/>
<path d="M158.291 61.9246C160.121 69.7135 166.801 75.9447 173.297 75.9447C172.016 76.6777 170.827 77.4108 169.546 78.2355C163.14 78.1439 156.369 71.9128 154.539 64.2155C155.82 63.4824 157.01 62.7493 158.291 61.9246Z" fill="#F2C32D"/>
<path d="M173.295 76.0363C173.386 76.0363 173.478 76.0363 173.478 76.0363L169.726 78.3271C169.634 78.3271 169.543 78.3271 169.543 78.3271C169.909 78.1438 170.275 77.8689 170.641 77.6857C171.007 77.4108 171.465 77.2275 171.831 76.9526C172.014 76.861 172.197 76.7693 172.288 76.6777C172.38 76.6777 172.471 76.5861 172.563 76.4944C172.654 76.4028 172.837 76.3112 173.02 76.2195C173.112 76.1279 173.203 76.0363 173.295 76.0363Z" fill="#F2C32D"/>
<path d="M162.771 61.9246C163.961 66.6895 168.078 70.6298 172.105 70.5382L168.353 72.829C164.327 72.829 160.209 68.9804 159.02 64.2154C160.301 63.3907 161.582 62.6576 162.771 61.9246Z" fill="#F1B800"/>
<path d="M172.193 70.5382C173.2 70.5382 174.115 70.2633 174.938 69.8051L171.187 72.096C170.454 72.5541 169.539 72.829 168.441 72.829C169.539 72.096 170.912 70.9047 172.193 70.5382Z" fill="#F1B800"/>
<path d="M173.474 76.0362C175.121 76.0362 176.585 75.578 177.866 74.845L174.115 77.1358C172.834 77.8689 171.37 78.3271 169.723 78.3271C170.821 77.594 172.193 76.4028 173.474 76.0362Z" fill="#F2C32D"/>
<path d="M162.222 48.9125C158.562 51.1117 156.823 56.1516 158.196 62.0162C156.915 62.7493 155.725 63.4823 154.444 64.307C153.072 58.4424 154.81 53.4026 158.47 51.2033C159.66 50.4703 161.124 49.5539 162.222 48.9125Z" fill="#F2C32D"/>
<path d="M165.245 53.8608C162.957 55.2353 161.951 58.3509 162.774 61.9246C161.493 62.6577 160.304 63.3907 159.023 64.2155C158.199 60.6417 159.206 57.5262 161.493 56.1516C162.683 55.5102 164.147 54.5939 165.245 53.8608Z" fill="#F1B800"/>
<path d="M161.582 56.1516L165.334 53.8608C166.066 53.4026 166.981 53.1277 167.987 53.1277L164.236 55.4185C163.229 55.4185 162.314 55.6934 161.582 56.1516Z" fill="#F2C32D"/>
<path d="M158.566 51.1117L162.318 48.8208C163.599 48.0877 165.063 47.6296 166.71 47.6296L162.959 49.9204C161.22 49.9204 159.756 50.3786 158.566 51.1117Z" fill="#F1B800"/>
<path d="M158.195 50.5619L161.947 48.271C163.228 47.4463 164.784 47.0798 166.522 46.9882L162.77 49.279C161.032 49.3707 159.476 49.8288 158.195 50.5619Z" fill="#F2C32D"/>
<path d="M174.849 69.8051L171.097 72.096C173.385 70.7215 174.391 67.6059 173.568 64.0322C172.378 59.2672 168.261 55.3269 164.234 55.4185L167.986 53.1277C172.012 53.1277 176.13 56.9763 177.319 61.7413C178.143 65.3151 177.136 68.4306 174.849 69.8051Z" fill="#F2C32D"/>
<path d="M171.141 72.0487C174.343 70.1137 174.801 64.9972 172.163 60.6208C169.526 56.2444 164.792 54.2653 161.591 56.2003C158.389 58.1354 157.931 63.2518 160.568 67.6282C163.206 72.0046 167.939 73.9838 171.141 72.0487Z" fill="#F2C32D"/>
<path d="M177.868 74.845L174.117 77.1358C177.777 74.9366 179.515 69.8967 178.143 64.0321C176.221 56.2432 169.45 49.9204 162.953 50.0121L166.705 47.7212C173.202 47.6296 180.064 53.9523 181.894 61.7413C183.267 67.6059 181.528 72.5541 177.868 74.845Z" fill="#F1B800"/>
<path d="M162.955 49.9205C169.452 49.8288 176.314 56.1516 178.144 63.9405C180.066 71.7295 176.223 78.1439 169.726 78.2355C163.229 78.3271 156.367 72.0044 154.537 64.2154C152.706 56.4265 156.367 50.0121 162.955 49.9205ZM168.445 72.8291C172.471 72.8291 174.759 68.8888 173.569 64.0322C172.38 59.2672 168.262 55.3269 164.236 55.4185C160.21 55.4185 157.922 59.3588 159.112 64.2154C160.21 68.9804 164.419 72.8291 168.445 72.8291Z" fill="#F1B800"/>
<path d="M162.772 49.3706C169.543 49.279 176.68 55.8767 178.602 64.0321C180.523 72.1876 176.68 78.8769 169.817 78.9685C163.046 79.0602 155.909 72.4625 153.987 64.307C152.066 56.1516 156 49.3706 162.772 49.3706ZM169.726 78.2355C176.223 78.1438 179.974 71.8211 178.144 63.9405C176.223 56.1516 169.451 49.8288 162.955 49.9204C156.458 50.0121 152.706 56.3348 154.536 64.2154C156.366 72.096 163.229 78.3271 169.726 78.2355Z" fill="#F2C32D"/>
<path d="M178.234 75.3948L174.482 77.6857C178.325 75.3948 180.064 70.1717 178.6 64.0322C176.678 55.8767 169.541 49.279 162.77 49.3707L166.521 47.0798C173.292 46.9882 180.43 53.5858 182.351 61.7413C183.815 67.7892 181.985 73.0123 178.234 75.3948Z" fill="#F2C32D"/>
<path d="M143.835 50.1953C141.09 43.506 133.404 37.8247 126.633 37.5498C126.724 37.4581 126.907 37.2749 126.999 37.0916C127.09 36.9083 127.273 36.725 127.365 36.6334C127.456 36.4501 127.639 36.2669 127.731 36.1752C127.822 35.992 128.005 35.8087 128.097 35.6254C128.188 35.4422 128.371 35.2589 128.463 35.0756C128.554 34.8924 128.737 34.7091 128.829 34.6175C128.92 34.4342 129.103 34.2509 129.195 34.1593C129.286 34.0676 129.469 33.8844 129.561 33.7011C136.332 34.0676 144.019 39.749 146.764 46.3467C145.94 47.6295 144.934 48.9124 143.835 50.1953Z" fill="#F2C32D"/>
<path d="M126.635 37.5498C123.615 37.3665 121.236 38.3745 119.863 40.0239L122.974 36.1752C124.347 34.4342 126.726 33.5178 129.746 33.7011C128.739 34.984 127.733 36.2669 126.635 37.5498Z" fill="#F2C32D"/>
<path d="M128.555 42.2231C126.725 42.1315 125.261 42.6813 124.438 43.7809L127.549 39.9323C128.372 38.9243 129.836 38.2828 131.666 38.3745C134.777 38.5577 138.255 40.5737 140.451 43.2311C139.444 44.514 138.346 45.7968 137.339 47.0797C135.143 44.3307 131.666 42.4064 128.555 42.2231Z" fill="#F1B800"/>
<path d="M139.164 50.012C138.707 49.004 138.158 47.9961 137.426 47.0797C138.432 45.7968 139.53 44.514 140.537 43.2311C141.269 44.1474 141.909 45.1554 142.275 46.1634C143.191 48.3626 143.007 50.3786 142.001 51.6614L138.89 55.5101C139.896 54.1356 140.079 52.2112 139.164 50.012Z" fill="#F1B800"/>
<path d="M143.379 59.0838C145.026 56.9762 145.3 53.8606 143.836 50.1953C143.928 50.1036 144.111 49.9204 144.202 49.7371C144.294 49.5538 144.477 49.3705 144.568 49.2789C144.66 49.0956 144.843 48.9124 144.934 48.8207C145.026 48.6375 145.209 48.4542 145.3 48.2709C145.392 48.0877 145.575 47.9044 145.666 47.7211C145.758 47.5379 145.941 47.3546 146.032 47.263C146.124 47.0797 146.307 46.8964 146.399 46.8048C146.49 46.7132 146.673 46.5299 146.765 46.3466C148.229 50.012 147.954 53.1276 146.307 55.2351C145.575 56.4264 144.294 57.9842 143.379 59.0838Z" fill="#F2C32D"/>
<path d="M142.003 51.5698L138.892 55.4185C138.068 56.5181 136.604 57.0679 134.683 56.9763C130.565 56.793 125.807 53.3109 124.16 49.1873C123.245 46.9881 123.428 44.9722 124.434 43.6893L127.546 39.8406C126.539 41.1235 126.356 43.0478 127.271 45.3387C128.918 49.4622 133.676 52.9444 137.794 53.1276C139.716 53.2193 141.18 52.5778 142.003 51.5698Z" fill="#F2C32D"/>
<path d="M146.488 55.2352L143.377 59.0838C142.005 60.8249 139.625 61.7412 136.606 61.5579C129.835 61.1914 122.148 55.5101 119.403 48.9124C117.939 45.247 118.214 42.1315 119.861 40.0239L122.972 36.1752C121.325 38.2828 121.05 41.3984 122.514 45.0638C125.259 51.7531 132.946 57.3428 139.717 57.7093C142.828 57.8926 145.116 56.9762 146.488 55.2352Z" fill="#F1B800"/>
<path d="M129.559 33.1513C136.605 33.5178 144.657 39.4741 147.494 46.3466C150.331 53.3109 146.945 58.6257 139.899 58.2591C132.853 57.8926 124.893 51.9363 121.965 45.0638C119.219 38.0996 122.605 32.7848 129.559 33.1513ZM139.716 57.7093C146.487 58.0758 149.69 52.9443 146.945 46.3466C144.2 39.6573 136.514 33.976 129.742 33.7011C122.971 33.3346 119.768 38.4661 122.514 45.0638C125.35 51.7531 133.036 57.4344 139.716 57.7093Z" fill="#F2C32D"/>
<path d="M129.835 33.7011C136.607 34.0676 144.293 39.749 147.038 46.3466C149.783 53.0359 146.581 58.0758 139.809 57.7093C133.038 57.3428 125.352 51.6614 122.607 45.0638C119.862 38.4661 123.064 33.3346 129.835 33.7011ZM137.796 53.1276C141.914 53.3109 143.927 50.1953 142.28 46.1634C140.633 42.0398 135.875 38.5577 131.757 38.3745C127.639 38.1912 125.626 41.3067 127.273 45.3387C129.012 49.3706 133.679 52.8527 137.796 53.1276Z" fill="#F1B800"/>
<path d="M131.758 38.2828C135.876 38.466 140.634 41.9481 142.281 46.0717C143.928 50.1952 142.007 53.3108 137.797 53.0359C133.68 52.8526 128.922 49.3705 127.274 45.247C125.627 41.2151 127.549 38.0995 131.758 38.2828Z" fill="#F2C32D"/>
<path d="M147.039 55.6017L143.928 59.4504C142.464 61.2831 140.085 62.1994 136.882 62.1078C129.836 61.7412 121.876 55.785 118.948 48.9124C117.392 45.1554 117.666 41.7649 119.405 39.6574L122.516 35.8087C120.778 38.0079 120.503 41.3068 122.059 45.0638C124.895 52.028 132.948 57.8926 139.993 58.2591C143.104 58.4424 145.575 57.4344 147.039 55.6017Z" fill="#F2C32D"/>
<path d="M196.168 108.292C203.763 105.634 208.338 97.2038 206.325 89.4149C207.057 89.873 207.789 90.3312 208.429 90.6977C210.443 98.395 205.959 106.825 198.273 109.574C197.724 109.208 196.808 108.658 196.168 108.292Z" fill="#F2C32D"/>
<path d="M201.023 91.3392C200.474 89.14 199.101 87.3989 197.454 86.3909L199.559 87.6738C201.298 88.6818 202.579 90.4228 203.128 92.6221C204.317 97.3871 201.572 102.519 196.905 104.168L194.801 102.885C199.467 101.236 202.213 96.0125 201.023 91.3392Z" fill="#F1B800"/>
<path d="M206.325 89.4149C205.41 85.8412 203.214 83.0921 200.469 81.3511L202.573 82.634C205.41 84.375 207.515 87.124 208.43 90.6978C208.064 90.5145 207.698 90.2396 207.332 90.0563C207.332 90.0563 207.24 89.9647 207.149 89.9647C207.149 89.9647 207.057 89.8731 206.966 89.8731C206.966 89.8731 206.874 89.7814 206.783 89.7814C206.691 89.6898 206.6 89.6898 206.508 89.5982C206.417 89.5065 206.325 89.5065 206.233 89.4149C206.416 89.5065 206.325 89.5065 206.325 89.4149Z" fill="#F2C32D"/>
<path d="M187.754 102.244C189.767 103.435 192.329 103.801 194.8 102.885L196.904 104.168C194.342 105.084 191.872 104.718 189.858 103.527C189.218 103.16 188.394 102.61 187.754 102.244Z" fill="#F1B800"/>
<path d="M184.641 107.192C187.935 109.208 192.052 109.758 196.17 108.292L198.275 109.574C194.157 111.041 190.039 110.491 186.745 108.475C186.196 108.108 185.281 107.558 184.641 107.192Z" fill="#F2C32D"/>
<path d="M197.358 86.391L199.463 87.6739C197.45 86.4826 194.888 86.1161 192.417 87.0324L190.312 85.7495C192.875 84.8332 195.345 85.1081 197.358 86.391Z" fill="#F2C32D"/>
<path d="M189.86 103.527L187.756 102.244C186.017 101.236 184.736 99.4946 184.187 97.2954C182.906 92.5304 185.743 87.3989 190.409 85.7495L192.514 87.0323C187.847 88.6818 185.102 93.8133 186.292 98.5783C186.841 100.778 188.122 102.427 189.86 103.527Z" fill="#F2C32D"/>
<path d="M191.05 81.6259C198.645 78.9686 206.422 83.0921 208.435 90.7894C210.449 98.4867 205.965 106.917 198.279 109.666C190.684 112.323 182.906 108.2 180.893 100.503C178.88 92.7137 183.455 84.2833 191.05 81.6259ZM196.906 104.168C201.573 102.519 204.318 97.2954 203.128 92.6221C201.847 87.8571 197.089 85.383 192.422 87.0324C187.756 88.6818 185.011 93.8133 186.2 98.5783C187.481 103.343 192.239 105.817 196.906 104.168Z" fill="#F1B800"/>
<path d="M200.471 81.351L202.575 82.6339C199.281 80.618 195.164 80.0682 191.046 81.5343L188.941 80.2514C192.968 78.7853 197.177 79.3351 200.471 81.351Z" fill="#F1B800"/>
<path d="M200.749 80.8012L202.853 82.0841C199.468 79.9765 195.075 79.4267 190.866 80.9845L188.762 79.7016C193.062 78.1439 197.363 78.6937 200.749 80.8012Z" fill="#F2C32D"/>
<path d="M186.84 108.475L184.735 107.192C181.899 105.451 179.794 102.702 178.879 99.1281C176.866 91.4309 181.35 83.0005 189.036 80.2515L191.141 81.5343C183.546 84.1917 178.971 92.6221 180.984 100.411C181.899 103.985 184.004 106.825 186.84 108.475Z" fill="#F1B800"/>
<path d="M190.865 80.9845C198.826 78.2355 206.878 82.4507 208.983 90.5145C211.088 98.5783 206.329 107.375 198.46 110.124C190.499 112.873 182.447 108.658 180.342 100.594C178.238 92.6221 182.996 83.8252 190.865 80.9845ZM198.369 109.574C205.963 106.917 210.539 98.4867 208.525 90.6978C206.512 83.0005 198.735 78.8769 191.14 81.5343C183.545 84.1917 178.97 92.6221 180.983 100.411C182.904 108.2 190.774 112.232 198.369 109.574Z" fill="#F2C32D"/>
<path d="M201.907 100.009C204.57 95.6486 203.479 90.1232 199.469 87.6678C195.46 85.2124 190.051 86.7568 187.388 91.1173C184.725 95.4779 185.817 101.003 189.826 103.459C193.836 105.914 199.245 104.37 201.907 100.009Z" fill="#F2C32D"/>
<path d="M186.472 109.025L184.368 107.742C181.439 106.001 179.243 103.068 178.237 99.3114C176.132 91.2476 180.89 82.4507 188.76 79.7017L190.864 80.9845C182.903 83.7336 178.237 92.5305 180.341 100.594C181.348 104.351 183.544 107.284 186.472 109.025Z" fill="#F2C32D"/>
<path d="M155.085 134.957C155.085 134.957 150.601 124.602 150.418 122.22C151.058 119.563 153.346 118.005 154.993 118.555C157.189 119.379 158.104 122.128 158.47 123.778C159.477 128.085 158.287 133.033 155.085 134.957Z" fill="#5780FA"/>
<path d="M168.169 103.71C164.509 108.75 168.169 124.602 170.365 131.108C172.561 137.614 177.594 152.184 183.907 154.017C190.221 155.85 204.679 148.977 214.012 144.67C223.345 140.364 235.058 134.499 238.718 126.985C242.012 120.204 237.894 105.451 236.613 99.5862C235.332 93.7216 231.306 79.9765 228.927 77.8689C225.267 77.4107 208.705 86.4825 197.084 91.2475C185.371 96.0125 171.371 99.2197 168.169 103.71Z" fill="#4471FA"/>
<path d="M240.005 120.754C239.73 121.12 239.364 121.395 239.09 121.762" stroke="#5780FA" stroke-linecap="round" stroke-linejoin="round"/>
<path d="M237.077 123.686C232.228 128.176 225.731 132.116 219.875 135.507C210.175 141.005 190.41 149.435 186.293 147.511C182.633 145.862 179.704 137.798 177.783 133.216C175.953 128.634 172.018 112.507 174.123 108.658C176.41 104.443 193.43 99.5862 198.829 97.5702C206.515 94.8212 219.051 88.2235 229.025 83.9167" stroke="#5780FA" stroke-linecap="round" stroke-linejoin="round" stroke-dasharray="3.03 3.03"/>
<path d="M230.309 83.4585C230.766 83.2752 231.132 83.092 231.59 82.9087" stroke="#5780FA" stroke-linecap="round" stroke-linejoin="round"/>
<path d="M168.173 103.71C164.512 108.75 168.173 124.602 170.369 131.108C172.565 137.614 177.597 152.184 183.911 154.017C190.225 155.85 204.682 148.977 214.016 144.67C223.349 140.364 235.062 134.499 238.722 126.985C242.016 120.204 237.898 105.451 236.617 99.5862C235.336 93.7216 231.31 79.9765 228.931 77.8689C225.271 77.4107 208.709 86.4825 197.088 91.2475C185.375 96.0125 171.375 99.2197 168.173 103.71Z" fill="#3B65D8"/>
<path d="M240.005 120.754C239.73 121.12 239.364 121.395 239.09 121.762" stroke="#748FD6" stroke-linecap="round" stroke-linejoin="round"/>
<path d="M237.077 123.686C232.228 128.176 225.731 132.116 219.875 135.507C210.175 141.005 190.41 149.435 186.293 147.511C182.633 145.862 179.704 137.798 177.783 133.216C175.953 128.634 172.018 112.507 174.123 108.658C176.41 104.443 193.43 99.5862 198.829 97.5702C206.515 94.8212 219.051 88.2235 229.025 83.9167" stroke="#C6D1EE" stroke-linecap="round" stroke-linejoin="round" stroke-dasharray="3.03 3.03"/>
<path d="M230.309 83.4585C230.766 83.2752 231.132 83.092 231.59 82.9087" stroke="#748FD6" stroke-linecap="round" stroke-linejoin="round"/>
<path d="M180.158 124.694C182.445 125.336 184.825 133.216 183.91 135.324C182.903 137.523 173.387 139.997 166.066 139.447C159.753 138.989 154.628 137.431 152.707 134.316C150.785 131.109 149.687 125.702 150.328 122.22C151.883 125.611 162.406 126.802 167.347 126.16C172.838 125.519 178.328 124.144 180.158 124.694Z" fill="#4171FB"/>
<path d="M155.085 134.957C155.085 134.957 150.601 124.602 150.418 122.22C151.058 119.562 153.346 118.005 154.993 118.554C157.189 119.379 158.104 122.128 158.47 123.778C159.477 128.084 158.287 133.033 155.085 134.957Z" fill="#254499"/>
<path d="M180.834 125.53C183.121 126.172 185.5 134.052 184.585 136.16C183.579 138.359 174.062 140.833 166.742 140.283C160.428 139.825 155.304 138.267 153.383 135.152C151.461 131.944 150.363 126.538 151.003 123.056C152.559 126.446 163.082 127.638 168.023 126.996C173.513 126.355 179.004 124.98 180.834 125.53Z" fill="#5981F9"/>
<path d="M51.0681 80.371L33.6128 86.0308C32.5709 86.3686 31.7645 87.5692 31.83 88.6998L32.7261 106.023L32.731 106.065C32.7358 106.135 32.738 106.196 32.7508 106.263C32.8805 107.018 33.5063 107.719 34.2192 107.869L45.6459 110.304C46.4252 110.467 47.0211 109.928 46.9825 109.099L46.6995 103.583L52.1894 101.803C53.2312 101.465 54.0376 100.264 53.9722 99.1337L53.0761 81.8109C53.0107 80.6803 52.11 80.0332 51.0681 80.371Z" fill="#5981F9"/>
<path d="M41.914 88.7441L39.638 89.4821C39.4777 89.5341 39.3592 89.6877 39.3579 89.8476L39.4422 91.2822C39.4467 91.3781 39.4914 91.4611 39.5709 91.5151C39.6584 91.5665 39.7569 91.5699 39.8451 91.5414L42.1612 90.7903C43.8924 90.229 44.2669 90.7012 44.4086 91.3021C44.6817 92.445 43.9446 93.3131 42.2295 93.8692L39.8733 94.6331C39.713 94.6851 39.6026 94.8361 39.6119 95.0014L39.8332 99.9178C39.8377 100.014 39.8849 100.105 39.9698 100.148C40.0493 100.202 40.1585 100.211 40.2467 100.182L41.9858 99.6185C42.1461 99.5665 42.2565 99.4155 42.2552 99.2476L42.1001 96.0375L42.629 95.866C43.9273 95.445 44.9677 94.9659 45.7934 94.016C46.6996 92.9868 47.0538 91.7025 46.7678 90.4928C46.312 88.5408 44.5109 87.8755 41.9383 88.7097" fill="white"/>
<path opacity="0.12" d="M34.6921 107.388C33.8906 107.648 33.1579 107.327 32.8516 106.656C33.0948 107.215 33.6827 107.662 34.2693 107.614C37.3754 107.36 46.8032 106.58 46.8032 106.58L46.6656 103.506L34.6921 107.388Z" fill="black"/>
</svg>
